<svg xmlns="http://www.w3.org/2000/svg" width="30.398" height="30.398" viewBox="0 0 30.398 30.398"><defs><style>.a{fill:#2a191f;opacity:0.797;}</style></defs><path class="a" d="M29,16.18h-.03V13.771A13.771,13.771,0,0,0,5.461,4.033a13.681,13.681,0,0,0-4.033,9.738V16.18H1.4a1.4,1.4,0,1,0,0,2.8h.031c0,.01,0,.02,0,.03,0,3.359.154,6.3,2.051,8.34C5.446,29.456,9.061,30.4,15.2,30.4q1.029,0,1.965-.036h.008a29.444,29.444,0,0,0,4.311-.444l.023,0a9.534,9.534,0,0,0,5.413-2.568,6.322,6.322,0,0,0,1.173-1.81.446.446,0,0,0,.031-.071,16.938,16.938,0,0,0,.847-6.458c0-.01,0-.02,0-.03H29a1.4,1.4,0,0,0,0-2.8ZM2.32,13.771A12.879,12.879,0,0,1,24.306,4.664a12.8,12.8,0,0,1,3.772,9.107V16.18H2.32Zm25.2,10.74-.257-.257.448-.448Q27.63,24.168,27.521,24.511ZM23.75,28.354l-.293-.293,1.273-1.273.686.686A7.771,7.771,0,0,1,23.75,28.354Zm-3.025.782L19.65,28.061l1.273-1.273L22.2,28.061l-.993.993Q20.968,29.1,20.725,29.136Zm-11.5-.076-1-1L9.5,26.788l1.273,1.273L9.7,29.14C9.537,29.114,9.38,29.088,9.228,29.06ZM5,27.485l.7-.7,1.273,1.273-.3.3A7.81,7.81,0,0,1,5,27.485ZM2.322,19.609l.837.837-.795.795C2.338,20.714,2.326,20.169,2.322,19.609Zm.355,4.163.482.482-.277.277C2.8,24.286,2.736,24.032,2.678,23.772Zm-.16-1.422L3.79,21.078,5.063,22.35,3.79,23.623Zm21.581,0-1.273,1.273L21.554,22.35l1.273-1.273Zm-.642-1.9,1.273-1.273L26,20.447,24.73,21.719Zm-4.438,4.438,1.273,1.273L19.019,27.43l-1.273-1.273Zm-1.9.642-1.273-1.273,1.273-1.273,1.273,1.273Zm2.535-1.273,1.273-1.273L22.2,24.254l-1.273,1.273Zm1.273-2.534L19.65,20.447l1.273-1.273L22.2,20.447Zm-.631.631-1.273,1.273L17.746,22.35l1.273-1.273Zm-3.176-.631-1.273-1.273,1.273-1.273,1.273,1.273Zm-.631.631-1.273,1.273L13.939,22.35l1.273-1.273ZM11.4,24.885l1.273,1.273L11.4,27.43l-1.273-1.273Zm-1.9.642L8.229,24.254,9.5,22.981l1.273,1.273Zm2.535-1.273,1.273-1.273,1.273,1.273-1.273,1.273Zm1.273-2.534-1.273-1.273,1.273-1.273,1.273,1.273Zm-.631.631L11.4,23.623,10.132,22.35,11.4,21.078ZM9.5,21.719,8.229,20.447,9.5,19.174l1.273,1.273Zm-.631.631L7.6,23.623,6.325,22.35,7.6,21.078Zm-3.176-.631L4.421,20.447l1.273-1.273,1.273,1.273Zm0,1.262,1.273,1.273L5.694,25.527,4.421,24.254Zm1.9,1.9L8.87,26.157,7.6,27.43,6.325,26.157ZM11.4,28.692l.716.716q-.684-.047-1.313-.118Zm.631-.631,1.273-1.273,1.273,1.273-1.273,1.273Zm1.9-1.9,1.273-1.273,1.273,1.273L15.212,27.43Zm3.176.631,1.273,1.273-1.273,1.273-1.273-1.273Zm1.9,1.9.595.595q-.627.071-1.308.118Zm3.807-1.262-1.273-1.273,1.273-1.273L24.1,26.157Zm.631-3.176,1.273-1.273L26,24.254,24.73,25.527Zm1.9-1.9,1.273-1.273,1.273,1.273-1.273,1.273Zm1.9-1.9.811-.811c0,.541-.016,1.069-.041,1.581Zm-.631-.631-.84-.84h1.679Zm-3.807,0-.84-.84h1.679Zm-3.807,0-.84-.84h1.679Zm-3.807,0-.84-.84h1.679Zm-3.807,0-.84-.84h1.679Zm-3.807,0-.84-.84H8.437Zm-3.807,0-.84-.84H4.63Zm-.548,5.617.548-.548,1.273,1.273-.757.757q-.09-.087-.174-.178A5.33,5.33,0,0,1,3.243,25.432ZM14.4,29.5l.807-.807.807.807c-.269,0-.541.007-.82.007S14.665,29.5,14.4,29.5Zm11.861-2.762c-.052.056-.106.111-.161.165l-.744-.744,1.273-1.273.53.53A5.334,5.334,0,0,1,26.266,26.737ZM29,18.084H1.4a.506.506,0,1,1,0-1.011H29a.506.506,0,1,1,0,1.011Z" transform="translate(0 0)"/></svg>