<svg xmlns="http://www.w3.org/2000/svg" width="201" height="265.622" viewBox="0 0 201 265.622">
  <g id="fruits-for-you-logo" transform="translate(-173.041 -231.857)">
    <path id="Path_254" data-name="Path 254" d="M196.574,478.261a1.839,1.839,0,0,0,.46.746c-1.9.607-6.454-.668-7.07-1.735-1.44-4.155-.573-18.954-.139-24.618l.121-1.8c-3.47,1.6-6.194,2.958-6.809,3.626-.573-.347-.312-3.348.529-4.242.581-.356,3.2-1.466,6.6-2.8.364-3.99.789-7.946,1.362-11.355a177.513,177.513,0,0,0-18.355,8.943c-.573-.347,0-4.25.746-5.075,3.079-1.822,10.557-4.823,18.4-7.651.165-.668.442-2.316,1.249-2.6a11.729,11.729,0,0,1,5.291.364c5.873-2,11.4-3.713,14.747-4.537.494.13-.243,2.038-.642,2.481a150.165,150.165,0,0,0-14.374,5.1l-.052.416c-.546,2.9-1.171,7.026-1.631,11.45,3.617-1.258,7.382-2.42,10.331-3.149.468.191.121,1.735-.208,1.986-2.073.668-6.185,2.247-10.409,4.025l-.217,2.837C195.88,458.691,195.446,475.042,196.574,478.261Z" transform="translate(0 -25.671)" fill="#010101"/>
    <path id="Path_255" data-name="Path 255" d="M228.016,449.31c-.52-.919-1.466-6.515-1.735-8.874a61.231,61.231,0,0,0-6.211,18.156c-.434,2.507-1.154,8.371-.468,10.34a3.14,3.14,0,0,0,.321.642c-2.134.347-6.011-.867-6.436-2.073-.694-2.012-.633-18.529,1.1-24.349a.937.937,0,0,1,.659-.581c1.6-.555,5.118.173,5.2.59-.642.321-1.31,6.176-1.561,12.231.616-6.072,4.9-17.2,6.688-17.826,2.464-.867,6.488.347,7.009,1.275-.052.416-.8,2.732-1.492,5.083-.729,2.507-1.353,5.335-1.492,5.63a1.735,1.735,0,0,1-1.587-.243Z" transform="translate(-5.306 -27.228)" fill="#010101"/>
    <path id="Path_256" data-name="Path 256" d="M237.753,435.094a.945.945,0,0,1,.668-.538c1.6-.555,5.474.451,5.2.633-.425.5-.8,2.889-.972,4.407-.52,4.693-1.483,14.608-.616,17.965.1.312.26.46.434.4,1.475-.512,9.351-28.027,10.279-28.548,1.258-.694,5.092.234,5.274.616-.425.5-.867,2.854-.972,4.407-.468,5.274-.59,8.527-.616,11.494,0,5.075,0,10.271,1.024,11.424-2.143.347-6.376-.737-6.8-1.943-.46-1.345-.243-10.643-.061-14.018-2.03,8.275-5.2,19.448-5.734,19.7-3.184,1.206-8.449-.226-9.2-2.672C235.16,456.459,235.68,441.382,237.753,435.094Z" transform="translate(-8.277 -26.154)" fill="#010101"/>
    <path id="Path_257" data-name="Path 257" d="M270.062,440.094c0,5.075,0,10.271,1.015,11.424-2.134.347-6.428-.763-6.853-1.969a48.082,48.082,0,0,1-.252-7.633,115.538,115.538,0,0,1,.625-11.9,26.145,26.145,0,0,1,1.05-5.786,1.284,1.284,0,0,1,.659-.677c1.553-.59,5.161.26,5.343.642-.425.5-.867,2.863-.972,4.407C270.218,433.874,270.062,437.127,270.062,440.094ZM268.4,411.139a3.149,3.149,0,0,1,4.242,2.533,4.6,4.6,0,0,1-2.932,4.979,3.062,3.062,0,0,1-4.181-2.507,4.6,4.6,0,0,1,2.889-5.005Z" transform="translate(-12.046 -23.737)" fill="#010101"/>
    <path id="Path_258" data-name="Path 258" d="M276.841,419.807c.226-2.082.442-4.068.633-5.387a30,30,0,0,1,1.11-5.751,1.258,1.258,0,0,1,.6-.711,8.091,8.091,0,0,1,5.2.607c-.425.5-.755,2.871-.98,4.4-.165.963-.321,2.672-.529,4.806,2.88-.954,5.7-1.787,7.937-2.411.4.156-.295,1.6-.677,2.091-1.388.477-4.337,1.509-7.5,2.811-.52,5.7-1,13.012-.954,17.427.052,5.049.052,8.51,1.1,9.646-2.177.364-6.263-.72-6.731-1.917-.347-.98-.529-7.287.078-16.481.1-1.6.252-3.747.46-6.029a31.308,31.308,0,0,0-6.168,3.6c-.529-.364.182-3.522.98-4.4C272.834,421.4,274.751,420.587,276.841,419.807Z" transform="translate(-12.884 -23.315)" fill="#010101"/>
    <path id="Path_259" data-name="Path 259" d="M291.363,423.777c-1.553-4.476,1.475-9.594,5.786-11.19,2.88-1.1,7.07-.3,8.674,2.351.555,1.865-2.6,6.688-3.019,6.87s-.616.113-.72-.2a21.409,21.409,0,0,0-1.778-5.248c-.867-1.457-1.978-1.917-3.27-1.466-1.735.59-1.908,2.012-1.345,3.47,1.735,4.554,10.583,11.407,11.6,13.463a3.8,3.8,0,0,1,.356.729c1.483,4.242-4.216,8.484-7.894,9.863-4.832,1.83-10.947,1.735-12.352-2.065-1.293-3.418,3.808-10.808,6.289-13.176A10.861,10.861,0,0,1,291.363,423.777Zm6.7,16.776c1.119-.39,4.242-2.082,3.47-4.216-1.015-2.5-4.276-5.378-6.888-8.128-2.524,3.99-3.47,7.26-2.672,9.759.833,2.672,3.435,3.539,6.124,2.585Z" transform="translate(-15.131 -23.893)" fill="#010101"/>
    <path id="Path_260" data-name="Path 260" d="M231.708,485.6c.226-2.082.512-4.138.815-6.15.685-4.5,1.83-8.414,4.207-9.238a11.225,11.225,0,0,1,5.977.174c.919.338.867.815-.347,1.024-1,.147-2.438.494-2.854,1.449a31.672,31.672,0,0,0-1.4,6.8l-.4,3.9c2.88-.954,5.656-1.735,7.894-2.4.408.165-.295,1.613-.677,2.1-1.388.477-4.276,1.535-7.451,2.793-.312,3.565-.512,6.9-.72,11.181-.425,7.72-.13,29.025.867,31.436a.772.772,0,0,1-.4.295c-1.292.451-5.708-1.423-5.959-2.143-.512-1.475-.867-14.825-.651-23.638.139-4.918.408-9.767.867-14.478a31.356,31.356,0,0,0-6.211,3.617c-.529-.373.174-3.522.972-4.407C227.7,487.23,229.574,486.467,231.708,485.6Z" transform="translate(-6.899 -31.552)" fill="#010101"/>
    <path id="Path_261" data-name="Path 261" d="M255.736,478.669c2.863-1,6.688,1.934,7.269,3.591,3.175,9.125-1.188,23.829-7.937,26.179-3.895,1.353-8.926,0-10.409-4.25-2.88-8.275,1.856-22.909,8.345-25.156a7.043,7.043,0,0,1,2.464-.252Zm1.735,3.808c-.173-.486-.867-2.117-1.683-1.813-4.068,1.414-7.026,16.837-4.71,23.5.39,1.119,1.18,2.247,2.438,1.8,3.747-1.3,5.526-18.364,3.947-23.49Z" transform="translate(-9.379 -32.689)" fill="#010101"/>
    <path id="Path_262" data-name="Path 262" d="M283.9,480.54c-.52-.919-1.466-6.515-1.735-8.874a61.587,61.587,0,0,0-6.237,18.156c-.434,2.507-1.145,8.38-.46,10.34a2.6,2.6,0,0,0,.321.642c-2.134.347-6.02-.867-6.436-2.073-.7-2.012-.633-18.529,1.1-24.349a.928.928,0,0,1,.651-.581c1.613-.555,5.127.173,5.2.59-.642.33-1.31,6.176-1.561,12.231.607-6.029,4.892-17.2,6.679-17.826,2.464-.867,6.5.356,7.018,1.275-.061.416-.807,2.732-1.492,5.083-.729,2.507-1.353,5.335-1.5,5.638A1.681,1.681,0,0,1,283.9,480.54Z" transform="translate(-12.712 -31.368)" fill="#010101"/>
    <path id="Path_263" data-name="Path 263" d="M322.369,482.207a136.72,136.72,0,0,0,.607,14.278c.191,1.136.312,2.351.711,3.921a.867.867,0,0,1-.4.286c-1.3.451-5.578-1.466-5.829-2.186-.633-1.83-.867-8.57-.807-15.718,0-3.114,0-6.072.226-13.766-2.03,8.284-5.2,19.448-5.734,19.7-3.184,1.206-8.449-.217-9.2-2.663-.529-1.969,0-17.045,2.065-23.334.52-1.535,6.168-.139,5.9.1-.425.494-.8,2.88-.972,4.4-.52,4.693-1.483,14.608-.616,17.965.1.312.26.46.434.4,1.483-.512,9.351-28.027,10.279-28.548,1.258-.685,5.092.234,5.274.625C323.219,459.3,322.36,473.532,322.369,482.207Z" transform="translate(-17.061 -29.817)" fill="#010101"/>
    <path id="Path_264" data-name="Path 264" d="M340.256,449.25c2.863-.989,6.688,1.934,7.269,3.591,3.175,9.126-1.188,23.829-7.937,26.179-3.895,1.362-8.935,0-10.409-4.25-2.88-8.275,1.856-22.909,8.336-25.156a6.939,6.939,0,0,1,2.472-.26Zm1.735,3.817c-.173-.494-.867-2.117-1.683-1.822-4.077,1.414-7.035,16.837-4.71,23.5.39,1.119,1.18,2.247,2.438,1.813,3.747-1.31,5.526-18.372,3.947-23.49Z" transform="translate(-20.583 -28.79)" fill="#010101"/>
    <path id="Path_265" data-name="Path 265" d="M356.242,444.544a.868.868,0,0,1,.659-.529c1.613-.564,5.474.451,5.2.633-.425.494-.8,2.88-.98,4.4-.52,4.693-1.483,14.608-.616,17.965.113.312.26.46.442.4,1.475-.512,9.351-28.027,10.271-28.548,1.266-.685,5.1.234,5.283.625-.425.494-.867,2.854-.972,4.4-.477,5.283-.6,8.527-.616,11.494,0,5.083,0,10.279,1.024,11.433-2.143.338-6.376-.737-6.8-1.952s-.243-10.643-.061-14.018c-2.039,8.284-5.2,19.448-5.734,19.7-3.192,1.206-8.449-.217-9.2-2.663C353.64,465.909,354.16,450.833,356.242,444.544Z" transform="translate(-23.982 -27.407)" fill="#010101"/>
    <path id="Path_266" data-name="Path 266" d="M309.188,319.906c13.879,10.149,17.947,28.816,9.073,41.689a25.9,25.9,0,0,1-15.388,10.513h0L245.379,392.06h0a23.022,23.022,0,0,1-20.619-3.678,24.5,24.5,0,0,1-10.175-18.824h0l-.711-62.456h0a27.325,27.325,0,0,1,4.545-18.442c8.865-12.882,27.316-15.094,41.195-4.944Z" transform="translate(-5.389 -6.03)" fill="#ef404a"/>
    <path id="Path_267" data-name="Path 267" d="M340.594,292.689s-13.532-12.786-26.5-11.277a36.319,36.319,0,0,0-1.856-10.86,33.155,33.155,0,0,0-10.565,1.752c-2.941-13.1-19.084-22.024-19.084-22.024s-11.65,12.335-8.787,25.5c2.837,13.012,18.832,21.964,19.127,22.129.087.278.147.451.147.451h.468c.252.243,13.714,12.838,26.6,11.277C333.125,308.087,340.594,292.689,340.594,292.689Z" transform="translate(-13.296 -2.442)" fill="#60bc56"/>
    <path id="Path_268" data-name="Path 268" d="M235.753,380.047a26.665,26.665,0,0,1-15.614-5.2,27.212,27.212,0,0,1-11.277-20.819v-.165l-.711-62.239a29.84,29.84,0,0,1,5.005-20.22,28.8,28.8,0,0,1,19.084-12.031,34.507,34.507,0,0,1,25.9,6.445l49.592,36.242c15.024,10.982,19.379,31.349,9.7,45.393a28.8,28.8,0,0,1-16.95,11.589L243.23,378.9l-.173.052A23.793,23.793,0,0,1,235.753,380.047Zm-21.556-26.4a.355.355,0,0,1,0,.1,21.79,21.79,0,0,0,9.073,16.724,20.35,20.35,0,0,0,18.216,3.3h.087l57.381-19.908a2.245,2.245,0,0,1,.477-.113,23.135,23.135,0,0,0,13.523-9.386c8.033-11.667,4.25-28.712-8.449-37.985l-49.583-36.251a29.146,29.146,0,0,0-21.773-5.482,23.421,23.421,0,0,0-15.614,9.776,24.505,24.505,0,0,0-4.112,16.395,4.331,4.331,0,0,1,.052.468Z" transform="translate(-4.628 -3.593)" fill="#010101"/>
    <path id="Path_269" data-name="Path 269" d="M288.832,284.9a2.7,2.7,0,0,1-1.3-.338c-.7-.39-17.392-9.741-20.48-23.933-3.131-14.382,8.943-27.377,9.455-27.923a2.706,2.706,0,0,1,3.262-.512c.711.39,17.349,9.741,20.489,23.933h0c3.114,14.391-8.943,27.394-9.464,27.906A2.707,2.707,0,0,1,288.832,284.9Zm-9.75-46.842c-2.793,3.583-8.674,12.448-6.723,21.426,2.012,9.273,11.789,16.481,15.944,19.214,2.8-3.583,8.674-12.448,6.731-21.417h0C292.961,247.977,283.194,240.76,279.082,238.053Z" transform="translate(-12.393 0)" fill="#010101"/>
    <path id="Path_270" data-name="Path 270" d="M316.86,301.491c-13.2,0-25.685-11.641-26.249-12.144a2.7,2.7,0,0,1-.573-3.131c.33-.685,8.275-16.75,22.554-18.459,14.087-1.735,28.2,11.459,28.79,12.023a2.689,2.689,0,0,1,.573,3.131c-.33.685-8.275,16.742-22.554,18.459a21.062,21.062,0,0,1-2.542.121Zm-20.983-14.747c3.765,3.1,13.688,10.349,22.892,9.247,8.926-1.076,15.085-9.846,17.349-13.68-3.765-3.1-13.688-10.349-22.883-9.247h0c-8.891,1.084-15.05,9.854-17.34,13.688Zm17.063-16.351Z" transform="translate(-15.473 -4.738)" fill="#010101"/>
    <path id="Path_271" data-name="Path 271" d="M236.445,294.894l-4.684,1.2-.451-4.944,4.684-1.2Z" transform="translate(-7.724 -7.701)" fill="#010101"/>
    <path id="Path_272" data-name="Path 272" d="M261.325,313.083l-4.684,1.2-.451-4.953,4.684-1.2Z" transform="translate(-11.022 -10.11)" fill="#010101"/>
    <path id="Path_273" data-name="Path 273" d="M286.205,331.264l-4.684,1.2-.451-4.944,4.684-1.2Z" transform="translate(-14.32 -12.522)" fill="#010101"/>
    <path id="Path_274" data-name="Path 274" d="M311.085,349.453l-4.684,1.2-.451-4.953,4.684-1.2Z" transform="translate(-17.618 -14.931)" fill="#010101"/>
    <path id="Path_275" data-name="Path 275" d="M262.175,287.873l-4.684,1.2-.451-4.953,4.684-1.2Z" transform="translate(-11.134 -6.769)" fill="#010101"/>
    <path id="Path_276" data-name="Path 276" d="M287.055,306.054l-4.684,1.2-.451-4.944,4.684-1.2Z" transform="translate(-14.432 -9.18)" fill="#010101"/>
    <path id="Path_277" data-name="Path 277" d="M311.935,324.243l-4.684,1.2-.451-4.953,4.684-1.2Z" transform="translate(-17.73 -11.59)" fill="#010101"/>
    <path id="Path_278" data-name="Path 278" d="M236.545,349.053l-4.684,1.2-.451-4.953,4.684-1.2Z" transform="translate(-7.737 -14.878)" fill="#010101"/>
    <path id="Path_279" data-name="Path 279" d="M261.425,367.243l-4.684,1.2-.451-4.953,4.684-1.2Z" transform="translate(-11.035 -17.29)" fill="#010101"/>
    <path id="Path_280" data-name="Path 280" d="M237.4,323.843l-4.684,1.2-.451-4.953,4.684-1.2Z" transform="translate(-7.85 -11.537)" fill="#010101"/>
    <path id="Path_281" data-name="Path 281" d="M262.275,342.024l-4.684,1.2-.451-4.953,4.684-1.188Z" transform="translate(-11.148 -13.948)" fill="#010101"/>
    <path id="Path_282" data-name="Path 282" d="M287.155,360.213l-4.684,1.2-.451-4.953,4.684-1.2Z" transform="translate(-14.446 -16.358)" fill="#010101"/>
    <path id="Path_283" data-name="Path 283" d="M237.494,377.994l-4.684,1.2-.46-4.944,4.693-1.2Z" transform="translate(-7.862 -18.716)" fill="#010101"/>
    <path id="Path_284" data-name="Path 284" d="M314.337,271.213a2.7,2.7,0,0,1-2.7-2.672,32.572,32.572,0,0,0-1.136-7.885,29.8,29.8,0,0,0-7.694,1.553,2.693,2.693,0,1,1-1.83-5.066,35.669,35.669,0,0,1,11.554-1.943A2.689,2.689,0,0,1,315,256.978a38.323,38.323,0,0,1,2.021,11.52,2.689,2.689,0,0,1-2.672,2.715Z" transform="translate(-16.723 -3.094)" fill="#010101"/>
    <path id="Path_285" data-name="Path 285" d="M325.229,408.371a7.807,7.807,0,0,0,.148,3.322c.156.46.477.633.772.538,1.058-.373,2.75-2.6,3.773-4.962.174-.061.26.4.234.538-.217,1.1-1.978,5.049-3.531,5.6-1.353.468-3.192-.3-3.557-1.345-.867-2.5.425-8.779,2.984-9.464,1-.26,2.6-.1,3.184.98.208.694-.867,2.472-.972,2.516a.161.161,0,0,1-.234-.121,12.148,12.148,0,0,0-.425-2.03c-.113-.33-.295-.521-.512-.468C326.322,403.686,325.428,406.306,325.229,408.371Z" transform="translate(-19.851 -22.618)" fill="#ef404a"/>
    <path id="Path_286" data-name="Path 286" d="M331.057,409.77a27.432,27.432,0,0,1,0-5.69c.078-1.4.33-4.086.494-5.3a10.752,10.752,0,0,1,.408-2.1.459.459,0,0,1,.217-.26,2.871,2.871,0,0,1,1.891.226,5.552,5.552,0,0,0-.356,1.6,75.15,75.15,0,0,0-.625,8.059,20.821,20.821,0,0,1,1.379-4.953c.3-.746,1.119-2.368,1.9-2.6a3.044,3.044,0,0,1,2.177.52c-.191,1.388-.6,9.5.165,9.741-.781.13-2.394-.26-2.55-.7-.408-1.18-.061-6.5.252-8.18-.243-.052-.451.243-.7.677-.867,1.466-2.793,8.119-2.333,9.464a1.006,1.006,0,0,0,.121.234C332.723,410.6,331.231,410.2,331.057,409.77Z" transform="translate(-20.926 -21.804)" fill="#ef404a"/>
    <path id="Path_287" data-name="Path 287" d="M344.683,396.309a2.583,2.583,0,0,1,2.654,1.31c1.154,3.331-.434,8.674-2.906,9.542a2.941,2.941,0,0,1-3.8-1.553c-1.05-3.019.677-8.362,3.045-9.186a2.444,2.444,0,0,1,.867-.1Zm.625,1.388c-.061-.182-.3-.772-.616-.659-1.483.512-2.6,6.15-1.735,8.579.147.408.434.824.867.668C345.247,405.8,345.889,399.57,345.308,397.7Z" transform="translate(-22.173 -21.789)" fill="#ef404a"/>
    <path id="Path_288" data-name="Path 288" d="M351.719,399.151a7.807,7.807,0,0,0,.147,3.322c.156.46.477.633.772.538,1.067-.373,2.75-2.6,3.773-4.962.182-.061.269.408.243.538-.226,1.1-1.986,5.049-3.53,5.6-1.362.468-3.2-.3-3.565-1.344-.867-2.5.425-8.779,2.984-9.464,1-.26,2.6-.1,3.184.98.208.694-.867,2.472-.972,2.516a.152.152,0,0,1-.226-.122,12.287,12.287,0,0,0-.434-2.03c-.113-.33-.295-.52-.512-.468C352.82,394.466,351.918,397.086,351.719,399.151Z" transform="translate(-23.363 -21.395)" fill="#ef404a"/>
    <path id="Path_289" data-name="Path 289" d="M361.533,390.439a2.6,2.6,0,0,1,2.654,1.31c1.162,3.34-.434,8.674-2.9,9.542a2.949,2.949,0,0,1-3.808-1.553c-1.05-3.027.677-8.371,3.053-9.195a2.6,2.6,0,0,1,.867-.1Zm.633,1.4c-.069-.182-.312-.772-.616-.668-1.492.52-2.6,6.15-1.735,8.588.147.408.434.815.867.659,1.405-.477,2.056-6.714,1.483-8.579Z" transform="translate(-24.407 -21.011)" fill="#ef404a"/>
    <path id="Path_290" data-name="Path 290" d="M366.538,397.749a31.6,31.6,0,0,1,0-6.02c.078-1.4.33-4.086.494-5.3a11.452,11.452,0,0,1,.408-2.1.442.442,0,0,1,.226-.26,2.9,2.9,0,0,1,1.882.217,5.946,5.946,0,0,0-.356,1.613,89.059,89.059,0,0,0-.625,9.03c0,1.839,0,3.105.4,3.522C368.2,398.582,366.712,398.183,366.538,397.749Z" transform="translate(-25.63 -20.167)" fill="#ef404a"/>
    <path id="Path_291" data-name="Path 291" d="M376,386.935a5.658,5.658,0,0,1,.3-1.293.344.344,0,0,1,.208-.234,2.776,2.776,0,0,1,1.96.252,5.082,5.082,0,0,0-.356,1.6,38.292,38.292,0,0,0-.243,4.467,14.746,14.746,0,0,0,.226,3.47,1.284,1.284,0,0,0,.174.347c-.781.121-2.325-.278-2.481-.72a18.692,18.692,0,0,1-.1-3.366c-.694,2.75-1.414,5.274-1.735,5.4-1.18.408-3.071-.139-3.383-1.024-.5-1.449-.226-4.606.494-6.94.425-1.31,1.067-2.359,1.735-2.6a2.967,2.967,0,0,1,3.2.642Zm-2.854,8.943c.573-.2,2.012-5.2,2.6-8.119-.338-.434-.746-.867-1.293-.651-1.449.512-2.307,6.671-1.6,8.562C372.9,395.818,373.026,395.922,373.147,395.878Z" transform="translate(-26.15 -20.344)" fill="#ef404a"/>
    <path id="Path_292" data-name="Path 292" d="M380.957,383.378c.087-.763.165-1.483.234-1.969a11.584,11.584,0,0,1,.4-2.1.477.477,0,0,1,.226-.26,2.94,2.94,0,0,1,1.891.217,5.632,5.632,0,0,0-.356,1.613c-.061.347-.121.972-.2,1.735,1.05-.347,2.082-.651,2.9-.867.147.061-.1.59-.243.763-.5.182-1.587.555-2.741,1.032-.191,2.082-.364,4.736-.347,6.367,0,1.839,0,3.105.4,3.522-.8.13-2.29-.269-2.455-.7a30.4,30.4,0,0,1,0-6.02c0-.581.1-1.371.173-2.2a11.555,11.555,0,0,0-2.255,1.318c-.191-.13.061-1.284.356-1.6a20.725,20.725,0,0,1,2.021-.841Z" transform="translate(-27.236 -19.502)" fill="#ef404a"/>
    <path id="Path_293" data-name="Path 293" d="M387.844,389.942c.165.451.486.633.781.529,1.058-.364,2.724-2.264,4.034-4.97.182-.052.234.408.226.538-.226,1.362-2.229,5.066-3.782,5.6-1.353.477-3.2-.295-3.565-1.345-.911-2.6.468-8.605,2.932-9.464a2.754,2.754,0,0,1,3.522,1.379c.408,1.171-1.735,3.851-3.158,4.762a4.693,4.693,0,0,1-1.214.512A6.8,6.8,0,0,0,387.844,389.942Zm1.735-8.3c-.807.278-1.613,2.741-1.882,4.979a2.6,2.6,0,0,0,.92-.581,5.274,5.274,0,0,0,1.475-3.825c-.052-.46-.252-.659-.512-.572Z" transform="translate(-28.13 -19.725)" fill="#ef404a"/>
    <path id="Path_294" data-name="Path 294" d="M327.869,423.439a27.525,27.525,0,0,0,3.973,6.48c1.388-1.848,2.385-4.094,2.134-6.072-.113-.867-1.032-1.475-1.952-1.856A11.725,11.725,0,0,0,329.7,423.4c-.043,0-.061-.069-.087-.13a2.551,2.551,0,0,1,.442-1.787,24.754,24.754,0,0,1,4.511-1.787c.807-.243,1.735-.494,2.75-.72.087,0,.13,0,.121.087a3.724,3.724,0,0,1-.46.867,35.568,35.568,0,0,0-4.337,1.735c1.327.347,2.967,1.405,3.3,2.715.555,2.195-.867,5.005-2.741,7.1a11.491,11.491,0,0,0,1.6,1.475,1.978,1.978,0,0,0,1.18.382c.052.46-1.336,1.787-1.917,1.874-.39,0-1.353-.867-2.49-2.117a8.094,8.094,0,0,1-1.926,1.214c-3.348,1.371-7.686-.763-7.92-3.765-.147-1.96,3.053-5.2,4.155-6.263-1.4-3.7-.772-7.425,2.012-8.388.867-.312,3.079-.052,3.47,1.466C331.894,419.215,329.266,421.817,327.869,423.439Zm-1.57,1.874c-1.371,1.891-2.429,4.068-2.108,5.977a2.516,2.516,0,0,0,3.27,2.1,7.477,7.477,0,0,0,2.828-1.787,31.226,31.226,0,0,1-3.99-6.289Zm1.188-2.811c.937-.928,2.524-3.591,1.9-5.37a.555.555,0,0,0-.711-.408c-1.041.364-2.03,3.253-1.171,5.777Z" transform="translate(-19.707 -24.379)" fill="#ef404a"/>
    <path id="Path_295" data-name="Path 295" d="M349.343,423.721a1.675,1.675,0,0,1-.182-.416,32.739,32.739,0,0,1-1.136-4.936,79.682,79.682,0,0,0-1.214,7.92,3.409,3.409,0,0,1-2.6-.625,2.506,2.506,0,0,1-.156-.347,40.551,40.551,0,0,1-.772-8.067c.061-.408,2.273-.52,2.385-.043a35.86,35.86,0,0,0,.425,7.1,66.878,66.878,0,0,1,1.648-7.876c.121-.451,2.1-.408,2.255,0a39.362,39.362,0,0,0,1.457,6.358c0-1.11,1.119-9.108,1.587-9.707.165-.26,1.188-.286,1.449-.1-.538.659-1.223,4-1.735,6.818-.39,2.351-.685,4.45-.642,4.623A3.7,3.7,0,0,1,349.343,423.721Z" transform="translate(-22.566 -23.994)" fill="#ef404a"/>
    <path id="Path_296" data-name="Path 296" d="M358.518,418.121c0,1.856,0,3.747.373,4.172-.781.121-2.351-.278-2.507-.72a17.81,17.81,0,0,1-.087-2.793,41.435,41.435,0,0,1,.226-4.337,9.74,9.74,0,0,1,.382-2.108.52.52,0,0,1,.243-.252,3.115,3.115,0,0,1,1.952.234,4.651,4.651,0,0,0-.356,1.613C358.57,415.849,358.526,417.037,358.518,418.121Zm-.607-10.583a1.154,1.154,0,0,1,1.553.928,1.683,1.683,0,0,1-1.067,1.822,1.119,1.119,0,0,1-1.527-.92A1.683,1.683,0,0,1,357.91,407.539Z" transform="translate(-24.289 -23.278)" fill="#ef404a"/>
    <path id="Path_297" data-name="Path 297" d="M365.185,411.276c-.815,1.457-2.871,8.015-2.368,9.473a.978.978,0,0,0,.121.234c-.781.121-2.2-.312-2.359-.755a31.949,31.949,0,0,1,.408-8.9.321.321,0,0,1,.234-.208,2.863,2.863,0,0,1,1.908.217c-.269.13-.546,3.045-.59,5.6a20.686,20.686,0,0,1,1.4-5.083c.3-.746,1.119-2.368,1.9-2.6a3.045,3.045,0,0,1,2.177.52c-.191,1.388-.59,9.5.173,9.741-.781.13-2.4-.26-2.559-.7-.408-1.18-.061-6.5.252-8.18C365.644,410.548,365.427,410.843,365.185,411.276Z" transform="translate(-24.84 -23.511)" fill="#ef404a"/>
    <path id="Path_298" data-name="Path 298" d="M372.424,415.692c.165.451.486.633.781.529,1.058-.364,2.724-2.264,4.034-4.97.182-.052.234.408.226.538-.226,1.362-2.229,5.066-3.782,5.6-1.353.477-3.2-.295-3.565-1.336-.911-2.6.468-8.614,2.932-9.473a2.754,2.754,0,0,1,3.522,1.379c.408,1.171-1.735,3.851-3.158,4.762a4.691,4.691,0,0,1-1.214.512A7,7,0,0,0,372.424,415.692Zm1.735-8.3c-.807.278-1.613,2.741-1.882,4.979a2.6,2.6,0,0,0,.92-.581,5.274,5.274,0,0,0,1.475-3.825C374.619,407.5,374.419,407.3,374.159,407.391Z" transform="translate(-26.086 -23.138)" fill="#ef404a"/>
    <path id="Path_299" data-name="Path 299" d="M383.086,403.018c.087-.763.165-1.483.234-1.969a11.587,11.587,0,0,1,.4-2.1.477.477,0,0,1,.226-.26,2.871,2.871,0,0,1,1.891.226,5.552,5.552,0,0,0-.356,1.6c-.061.347-.121.972-.2,1.735,1.05-.347,2.082-.651,2.9-.867.147.061-.1.59-.243.763-.512.182-1.587.555-2.741,1.032-.191,2.082-.364,4.745-.347,6.367,0,1.839,0,3.105.4,3.522-.8.13-2.29-.26-2.455-.7a30.413,30.413,0,0,1,0-6.02c0-.573.1-1.362.173-2.195a11.166,11.166,0,0,0-2.255,1.31c-.2-.13.061-1.284.356-1.6C381.62,403.6,382.323,403.287,383.086,403.018Z" transform="translate(-27.518 -22.105)" fill="#ef404a"/>
    <path id="Path_300" data-name="Path 300" d="M391.663,400.339a2.583,2.583,0,0,1,2.654,1.31c1.154,3.331-.434,8.674-2.906,9.542a2.941,2.941,0,0,1-3.8-1.553c-1.05-3.027.677-8.371,3.045-9.195a2.446,2.446,0,0,1,.867-.1Zm.633,1.4c-.069-.182-.312-.781-.625-.668-1.483.52-2.559,6.15-1.735,8.588.147.408.434.815.867.659,1.44-.477,2.065-6.714,1.492-8.544Z" transform="translate(-28.401 -22.323)" fill="#ef404a"/>
    <path id="Path_301" data-name="Path 301" d="M400.584,397.229a2.587,2.587,0,0,1,2.654,1.319c1.162,3.331-.434,8.674-2.9,9.542a2.941,2.941,0,0,1-3.8-1.553c-1.058-3.019.677-8.371,3.045-9.195a2.6,2.6,0,0,1,.868-.1Zm.633,1.4c-.061-.182-.3-.772-.616-.668-1.483.52-2.6,6.15-1.735,8.588.139.408.425.824.867.659,1.405-.477,2.056-6.714,1.5-8.579Z" transform="translate(-29.584 -21.912)" fill="#ef404a"/>
  </g>
</svg>
